<svg width="1024" height="1024" viewBox="0 0 1024 1024" fill="none" xmlns="http://www.w3.org/2000/svg">
  <defs>
    <linearGradient id="spark" x1="388" y1="206" x2="654" y2="470" gradientUnits="userSpaceOnUse">
      <stop stop-color="#2173FF"/>
      <stop offset="1" stop-color="#6D5BFF"/>
    </linearGradient>
    <linearGradient id="screen" x1="340" y1="430" x2="674" y2="810" gradientUnits="userSpaceOnUse">
      <stop stop-color="#16203F"/>
      <stop offset="1" stop-color="#0F172A"/>
    </linearGradient>
    <filter id="cardShadow" x="124" y="124" width="776" height="776" filterUnits="userSpaceOnUse" color-interpolation-filters="sRGB">
      <feFlood flood-opacity="0" result="BackgroundImageFix"/>
      <feColorMatrix in="SourceAlpha" type="matrix" values="0 0 0 0 0 0 0 0 0 0 0 0 0 0 0 0 0 0 127 0" result="hardAlpha"/>
      <feOffset dy="22"/>
      <feGaussianBlur stdDeviation="28"/>
      <feComposite in2="hardAlpha" operator="out"/>
      <feColorMatrix type="matrix" values="0 0 0 0 0.08 0 0 0 0 0.13 0 0 0 0 0.28 0 0 0 0.18 0"/>
      <feBlend mode="normal" in2="BackgroundImageFix" result="effect1_dropShadow_0_1"/>
      <feBlend mode="normal" in="SourceGraphic" in2="effect1_dropShadow_0_1" result="shape"/>
    </filter>
  </defs>

  <g filter="url(#cardShadow)">
    <rect x="180" y="158" width="664" height="664" rx="184" fill="white"/>
    <rect x="180.5" y="158.5" width="663" height="663" rx="183.5" stroke="#E8ECF8"/>
  </g>

  <circle cx="512" cy="366" r="108" fill="url(#spark)"/>
  <circle cx="512" cy="366" r="46" fill="white" fill-opacity="0.22"/>
  <path d="M392 440C365.49 440 344 461.49 344 488V658C344 684.51 365.49 706 392 706H632C658.51 706 680 684.51 680 658V488C680 461.49 658.51 440 632 440H392Z" fill="url(#screen)"/>
  <path d="M422 476C410.954 476 402 484.954 402 496V630C402 641.046 410.954 650 422 650H602C613.046 650 622 641.046 622 630V496C622 484.954 613.046 476 602 476H422Z" fill="#101727"/>
  <rect x="470" y="734" width="84" height="18" rx="9" fill="#D7DEED"/>
  <rect x="492" y="553" width="40" height="40" rx="8" fill="white"/>
</svg>
