<svg width="1024" height="1024" viewBox="0 0 1024 1024" fill="none" xmlns="http://www.w3.org/2000/svg">
  <defs>
    <linearGradient id="spark" x1="388" y1="206" x2="654" y2="470" gradientUnits="userSpaceOnUse">
      <stop stop-color="#2173FF"/>
      <stop offset="1" stop-color="#6D5BFF"/>
    </linearGradient>
    <linearGradient id="screen" x1="340" y1="430" x2="674" y2="810" gradientUnits="userSpaceOnUse">
      <stop stop-color="#16203F"/>
      <stop offset="1" stop-color="#0F172A"/>
    </linearGradient>
    <filter id="cardShadow" x="124" y="124" width="776" height="776" filterUnits="userSpaceOnUse" color-interpolation-filters="sRGB">
      <feFlood flood-opacity="0" result="BackgroundImageFix"/>
      <feColorMatrix in="SourceAlpha" type="matrix" values="0 0 0 0 0 0 0 0 0 0 0 0 0 0 0 0 0 0 127 0" result="hardAlpha"/>
      <feOffset dy="22"/>
      <feGaussianBlur stdDeviation="28"/>
      <feComposite in2="hardAlpha" operator="out"/>
      <feColorMatrix type="matrix" values="0 0 0 0 0.08 0 0 0 0 0.13 0 0 0 0 0.28 0 0 0 0.18 0"/>
      <feBlend mode="normal" in2="BackgroundImageFix" result="effect1_dropShadow_0_1"/>
      <feBlend mode="normal" in="SourceGraphic" in2="effect1_dropShadow_0_1" result="shape"/>
    </filter>
  </defs>

  <g filter="url(#cardShadow)">
    <rect x="180" y="158" width="664" height="664" rx="184" fill="white"/>
    <rect x="180.5" y="158.5" width="663" height="663" rx="183.5" stroke="#E8ECF8"/>
  </g>

  <circle cx="512" cy="366" r="108" fill="url(#spark)"/>
  <circle cx="512" cy="366" r="46" fill="white" fill-opacity="0.22"/>
  <path d="M362 424C332.177 424 308 448.177 308 478V676C308 705.823 332.177 730 362 730H662C691.823 730 716 705.823 716 676V478C716 448.177 691.823 424 662 424H362Z" fill="url(#screen)"/>
  <path d="M398 468C384.745 468 374 478.745 374 492V646C374 659.255 384.745 670 398 670H626C639.255 670 650 659.255 650 646V492C650 478.745 639.255 468 626 468H398Z" fill="#101727"/>
  <rect x="456" y="756" width="112" height="22" rx="11" fill="#D7DEED"/>
  <rect x="482" y="541" width="60" height="60" rx="12" fill="white"/>
</svg>
